HIERARCHY
ROOT Hips
{
	OFFSET 0.00000 0.00000 0.00000
	CHANNELS 6 Xposition Yposition Zposition Zrotation Yrotation Xrotation 
	JOINT LHipJoint
	{
		OFFSET 0 0 0
		CHANNELS 3 Zrotation Yrotation Xrotation
		JOINT LeftUpLeg
		{
			OFFSET 1.37590 -1.78394 0.89329
			CHANNELS 3 Zrotation Yrotation Xrotation
			JOINT LeftLeg
			{
				OFFSET 2.47928 -6.81178 0.00000
				CHANNELS 3 Zrotation Yrotation Xrotation
				JOINT LeftFoot
				{
					OFFSET 2.63345 -7.23535 0.00000
					CHANNELS 3 Zrotation Yrotation Xrotation
					JOINT LeftToeBase
					{
						OFFSET 0.23938 -0.65768 2.27012
						CHANNELS 3 Zrotation Yrotation Xrotation
						End Site
						{
							OFFSET 0.00000 -0.00000 1.18363
						}
					}
				}
			}
		}
	}
	JOINT RHipJoint
	{
		OFFSET 0 0 0
		CHANNELS 3 Zrotation Yrotation Xrotation
		JOINT RightUpLeg
		{
			OFFSET -1.33617 -1.78394 0.89329
			CHANNELS 3 Zrotation Yrotation Xrotation
			JOINT RightLeg
			{
				OFFSET -2.56922 -7.05888 0.00000
				CHANNELS 3 Zrotation Yrotation Xrotation
				JOINT RightFoot
				{
					OFFSET -2.56568 -7.04915 0.00000
					CHANNELS 3 Zrotation Yrotation Xrotation
					JOINT RightToeBase
					{
						OFFSET -0.27533 -0.75646 2.18105
						CHANNELS 3 Zrotation Yrotation Xrotation
						End Site
						{
							OFFSET -0.00000 -0.00000 1.15233
						}
					}
				}
			}
		}
	}
	JOINT LowerBack
	{
		OFFSET 0 0 0
		CHANNELS 3 Zrotation Yrotation Xrotation
		JOINT Spine
		{
			OFFSET 0.06190 2.15152 -0.00935
			CHANNELS 3 Zrotation Yrotation Xrotation
			JOINT Spine1
			{
				OFFSET 0.06334 2.15332 0.00872
				CHANNELS 3 Zrotation Yrotation Xrotation
				JOINT Neck
				{
					OFFSET 0 0 0
					CHANNELS 3 Zrotation Yrotation Xrotation
					JOINT Neck1
					{
						OFFSET -0.04202 1.66908 0.23524
						CHANNELS 3 Zrotation Yrotation Xrotation
						JOINT Head
						{
							OFFSET 0.07510 1.69357 -0.24440
							CHANNELS 3 Zrotation Yrotation Xrotation
							End Site
							{
								OFFSET 0.02556 1.71719 -0.11000
							}
						}
					}
				}
				JOINT LeftShoulder
				{
					OFFSET 0 0 0
					CHANNELS 3 Zrotation Yrotation Xrotation
					JOINT LeftArm
					{
						OFFSET 3.67168 1.26306 -0.41342
						CHANNELS 3 Zrotation Yrotation Xrotation
						JOINT LeftForeArm
						{
							OFFSET 4.68510 -0.00000 -0.00000
							CHANNELS 3 Zrotation Yrotation Xrotation
							JOINT LeftHand
							{
								OFFSET 3.39626 -0.00000 -0.00000
								CHANNELS 3 Zrotation Yrotation Xrotation
								JOINT LeftFingerBase
								{
									OFFSET 0 0 0
									CHANNELS 3 Zrotation Yrotation Xrotation
									JOINT LeftHandIndex1
									{
										OFFSET 0.48608 -0.00000 -0.00000
										CHANNELS 3 Zrotation Yrotation Xrotation
										End Site
										{
											OFFSET 0.39189 -0.00000 -0.00000
										}
									}
								}
								JOINT LThumb
								{
									OFFSET 0 0 0
									CHANNELS 3 Zrotation Yrotation Xrotation
									End Site
									{
										OFFSET 0.39787 -0.00000 0.39787
									}
								}
							}
						}
					}
				}
				JOINT RightShoulder
				{
					OFFSET 0 0 0
					CHANNELS 3 Zrotation Yrotation Xrotation
					JOINT RightArm
					{
						OFFSET -3.04136 1.42992 -0.76390
						CHANNELS 3 Zrotation Yrotation Xrotation
						JOINT RightForeArm
						{
							OFFSET -5.55576 -0.00000 -0.00000
							CHANNELS 3 Zrotation Yrotation Xrotation
							JOINT RightHand
							{
								OFFSET -3.32774 -0.00000 -0.00000
								CHANNELS 3 Zrotation Yrotation Xrotation
								JOINT RightFingerBase
								{
									OFFSET 0 0 0
									CHANNELS 3 Zrotation Yrotation Xrotation
									JOINT RightHandIndex1
									{
										OFFSET -0.50763 -0.00000 -0.00000
										CHANNELS 3 Zrotation Yrotation Xrotation
										End Site
										{
											OFFSET -0.40926 -0.00000 -0.00000
										}
									}
								}
								JOINT RThumb
								{
									OFFSET 0 0 0
									CHANNELS 3 Zrotation Yrotation Xrotation
									End Site
									{
										OFFSET -0.41551 -0.00000 0.41551
									}
								}
							}
						}
					}
				}
			}
		}
	}
}
MOTION
Frames: 12
Frame Time: 0.0606061
0.00 0.00 0.00 0 0 0 0 0 0 -21 0 0 0 0 0 0 0 0 0 0 0 0 0 0 21 0 0 0 0 0 0 0 0 0 0 0 0 0 0 0 0 0 0 0 0 0 0 -16 0 0 21 0 0 11 0 0 0 -8 0 0 0 0 0 0 0 0 0 0 0 0 0 0 0 0 0 0 0 0 8 0 0 0 0 0 0 0 0 0 0 0 0 0 0 0 0 0
0.00 0.00 0.00 -99.9861 -84.3040 109.3530 0.0000 0.0000 0.0000 -9.8669 -6.6525 -12.5847 1.7745 8.3797 23.8733 0.5707 -1.1893 -13.9114 0.0865 -1.8971 -5.2213 0.0000 0.0000 0.0000 27.5796 7.1674 -8.8326 -1.0121 -6.4010 17.9524 -0.3303 -7.3306 -15.9407 -0.2963 -3.5000 9.6741 3.7345 -0.9238 -4.8765 2.7042 -1.5032 -2.0850 0.6052 -0.7934 0.5671 -4.7826 -0.8799 -17.3950 5.1918 -1.7917 26.7577 2.4421 -0.8006 11.7157 0.0000 -0.0000 0.0000 -94.9337 -6.8245 19.0297 16.8192 -26.6187 -4.0060 -0.0000 0.0000 -13.9795 11.0052 45.5433 7.9029 -7.1250 0.0000 -0.0000 -44.5986 71.6531 -30.0075 0.0000 -0.0000 0.0000 86.2268 0.3383 8.0159 -7.8681 13.3388 -0.9215 0.0000 0.0000 18.6428 -13.3715 -26.8463 6.1272 7.1250 -0.0000 -0.0000 18.2555 -56.5191 -5.2780
0.00 0.00 0.00 -94.7387 -83.7388 103.2880 0.0000 0.0000 0.0000 -7.4266 -7.6419 -21.4593 4.7392 13.0839 39.6834 0.4950 -1.5429 -12.8463 0.4629 -4.3640 -12.1030 0.0000 0.0000 0.0000 29.7497 6.7033 -6.0197 -0.9315 -6.1480 17.2144 -0.3764 -8.0070 -17.1787 -0.2941 -3.4874 9.6387 4.5474 -0.5146 -4.2894 3.0477 -0.9764 -1.8181 0.5374 -0.5335 0.5142 -4.4086 -0.4572 -17.7921 4.6535 -1.3690 29.6601 2.2912 -0.7040 12.9224 0.0000 0.0000 0.0000 -92.1497 -11.6573 35.9181 34.9315 -44.7631 -14.7651 -0.0000 0.0000 -23.6185 8.4331 43.6926 5.8475 -7.1250 0.0000 -0.0000 -43.1012 69.5326 -26.9983 0.0000 0.0000 0.0000 86.3866 1.2509 15.0991 -9.2312 15.5281 -1.2613 0.0000 0.0000 10.2859 -13.4705 -29.6117 6.7501 7.1250 -0.0000 -0.0000 20.0004 -59.1505 -7.0912
0.00 0.00 0.00 -101.2220 -83.3334 110.7650 0.0000 0.0000 0.0000 -3.1914 -11.9930 -34.5956 2.0882 9.0474 25.9439 0.1913 2.7275 -9.7335 0.5934 -4.9316 -13.7137 0.0000 0.0000 0.0000 31.6903 5.0791 2.4130 -0.5654 -4.8157 13.3838 -0.6095 -7.9605 -19.7383 -0.0530 -1.4863 4.0880 5.6426 1.3735 -3.7605 3.2218 1.5410 -2.2581 0.2095 0.6906 -0.1552 -6.2367 -2.5706 -17.3616 5.5435 -3.9686 27.7486 2.5062 -1.8934 12.2781 -0.0000 -0.0000 0.0000 -89.0727 -15.7250 36.3141 36.6232 -45.9370 -15.9687 -0.0000 -0.0000 9.8012 17.4925 28.7068 8.6079 -7.1250 0.0000 -0.0000 -15.1225 59.2017 -5.3225 -0.0000 -0.0000 0.0000 89.1459 10.1306 36.5781 -22.1681 33.1665 -6.6776 0.0000 -0.0000 -20.2568 -6.1833 -34.7019 3.5294 7.1250 -0.0000 -0.0000 32.1066 -61.9253 -13.9982
0.00 0.00 0.00 -128.2870 -81.8531 139.2450 0.0000 0.0000 0.0000 -3.5074 -13.8767 -31.7754 0.7950 5.6913 15.8912 -0.1367 6.7493 -4.2391 0.1768 -2.7087 -7.4689 0.0000 0.0000 0.0000 28.1543 3.8991 4.1438 -1.5235 -7.7938 22.0894 -0.3658 -4.1452 -13.7102 -0.3001 3.5222 -9.7363 5.0566 1.8774 -3.3073 3.1400 2.2581 -1.9452 0.4693 1.0628 -0.0771 -8.1194 -4.8804 -16.8246 6.1246 -6.9565 27.3037 2.5627 -3.3570 12.3206 0.0000 -0.0000 0.0000 -92.4513 -2.5895 -4.1570 8.7065 -14.6915 -1.1245 -0.0000 -0.0000 41.8107 13.0234 25.6965 5.7271 -7.1250 0.0000 -0.0000 -17.9301 55.3535 -4.6666 0.0000 -0.0000 0.0000 92.7252 16.8842 37.8079 -33.6749 43.8424 -13.8874 0.0000 -0.0000 -40.8624 4.1723 -33.4404 -2.3020 7.1250 -0.0000 -0.0000 40.8271 -58.4642 -15.0292
0.00 0.00 0.00 -147.9490 -81.7129 158.1180 0.0000 0.0000 0.0000 -9.6023 -12.2662 -26.9269 1.0841 6.6176 18.5873 -0.1150 6.1523 -3.6897 0.0076 -0.5613 -1.5424 0.0000 0.0000 0.0000 22.8670 4.1346 -2.0960 -4.1254 -12.3254 36.8930 0.2282 -8.4362 -2.8976 -0.0299 1.1169 -3.0705 3.1524 1.6969 -2.4735 2.5715 2.1361 -1.4839 0.9211 1.0334 -0.1183 -8.6916 -5.1805 -16.7456 5.6362 -7.2290 28.4512 2.4341 -3.6291 12.7972 0.0000 0.0000 0.0000 -92.9850 3.8176 -37.2661 5.6180 -9.6236 -0.4733 -0.0000 -0.0000 68.7227 9.9046 24.3663 4.1204 -7.1250 0.0000 -0.0000 -20.2613 53.5099 -4.3809 0.0000 0.0000 0.0000 91.6043 15.7991 35.6142 -36.4428 45.8153 -15.8392 0.0000 -0.0000 -36.7159 3.3858 -31.2493 -1.7579 7.1250 -0.0000 -0.0000 37.9759 -56.9175 -12.2962
0.00 0.00 0.00 -163.4080 -82.5373 172.1860 0.0000 0.0000 0.0000 -16.2563 -10.5072 -19.1431 1.0379 6.4795 18.1823 0.0186 4.1865 -6.6630 0.0068 0.5309 1.4589 0.0000 0.0000 0.0000 18.0577 4.8734 -13.9022 -8.0214 -16.1350 52.6398 0.6183 -15.2263 1.3376 -0.1297 -2.3211 6.3939 1.2952 0.9702 -1.5577 2.0863 1.2481 -0.9971 1.4277 0.6117 -0.1667 -8.6570 -4.7968 -16.8337 5.0071 -6.5589 29.1603 2.2996 -3.4308 13.0204 -0.0000 -0.0000 0.0000 -92.9716 7.8202 -29.2957 6.2516 -10.6811 -0.5850 -0.0000 -0.0000 58.4961 7.1037 23.3984 2.8333 -7.1250 0.0000 -0.0000 -22.4154 52.1223 -4.0998 -0.0000 -0.0000 0.0000 88.7163 9.9969 31.5800 -32.2399 42.7376 -12.9034 0.0000 -0.0000 -23.1654 -3.5379 -29.6416 1.7514 7.1250 -0.0000 -0.0000 30.0129 -57.0279 -9.4217
0.00 0.00 0.00 -207.0630 -88.3055 214.2650 0.0000 0.0000 0.0000 -23.4937 -7.2688 -4.4452 0.5741 4.8524 13.4880 0.4141 -2.4677 -11.5555 0.0003 0.1048 0.2878 0.0000 0.0000 0.0000 13.6717 5.0495 -33.1112 -5.8840 -14.3150 44.5145 0.9457 -17.3511 -10.6937 -0.2549 -3.2487 8.9718 -1.2093 -1.1212 -0.7336 1.8726 -1.4986 -0.6868 2.5886 -0.7466 -0.2112 -8.0123 -3.9537 -17.0803 5.0631 -5.4783 28.8891 2.3901 -2.8641 12.8425 0.0000 -0.0000 0.0000 -89.6867 3.9678 4.7834 14.3155 -23.1839 -2.9512 -0.0000 -0.0000 25.5910 10.6039 24.2211 4.3921 -7.1250 0.0000 -0.0000 -19.5020 53.4990 -4.2011 0.0000 -0.0000 0.0000 85.6740 -6.4279 4.1473 -11.8409 19.5655 -2.0487 0.0000 0.0000 3.7139 -18.9021 -37.5172 11.7792 7.1250 -0.0000 -0.0000 21.5412 -67.8876 -12.0659
0.00 0.00 0.00 -317.6220 -87.2502 324.8550 0.0000 0.0000 0.0000 -24.5541 -5.4183 1.4127 0.5059 4.5595 12.6564 0.5250 -6.2718 -12.9803 0.0264 -1.0494 -2.8848 0.0000 0.0000 0.0000 11.6137 6.8506 -35.3585 -2.1632 -9.1980 26.4166 0.8126 -16.1132 -9.8281 -0.1517 -2.5099 6.9171 -1.9766 -1.7914 -1.2670 1.9593 -2.3822 -0.7598 3.0837 -1.1896 0.0948 -7.6487 -3.7158 -17.4243 5.1017 -5.1537 28.4568 2.3909 -2.6498 12.6996 -0.0000 0.0000 0.0000 -87.5825 0.4737 15.3293 22.9003 -33.9796 -7.0825 -0.0000 -0.0000 14.5711 14.2375 24.2579 5.9513 -7.1250 0.0000 -0.0000 -15.9433 54.2005 -3.6763 -0.0000 0.0000 0.0000 85.3665 -13.0190 -39.2970 -6.2839 10.7349 -0.5910 0.0000 0.0000 32.0014 -20.8051 -42.3941 14.3692 7.1250 -0.0000 -0.0000 26.9890 -72.7611 -18.1380
0.00 0.00 0.00 -391.9320 -85.8858 398.2850 0.0000 0.0000 0.0000 -16.4537 -4.5085 -0.0475 3.6772 11.7180 34.7415 -0.0867 -5.2263 1.5590 0.8460 -5.8667 -16.3981 0.0000 0.0000 0.0000 19.6674 11.7341 -26.2612 -1.3055 -7.2380 20.4225 0.4894 -12.3163 -3.5920 -0.7797 -5.6377 15.7368 2.4055 -2.2950 -3.4024 4.0890 -3.2254 -2.2097 2.7525 -1.6553 -0.2596 -6.9326 -2.6170 -17.8546 2.5923 -3.3649 32.9021 1.5927 -2.2768 14.4863 -0.0000 -0.0000 0.0000 -90.6966 -5.1467 25.2836 31.7218 -42.3243 -12.5531 -0.0000 0.0000 -2.9969 16.1414 29.7009 8.1605 -7.1250 0.0000 -0.0000 -17.2408 59.8481 -6.3622 -0.0000 -0.0000 0.0000 87.0253 -2.7820 -6.7467 -8.9079 15.0135 -1.1761 0.0000 -0.0000 -2.0162 -13.0554 -48.7465 9.8891 7.1250 -0.0000 -0.0000 51.3813 -74.3301 -37.8510
0.00 0.00 0.00 -440.2300 -84.4247 445.3980 0.0000 0.0000 0.0000 -10.8209 -4.3614 -12.2450 7.5690 15.7929 50.9951 0.0666 -1.2034 5.4754 0.6545 -5.1747 -14.4074 0.0000 0.0000 0.0000 27.0886 10.6234 -16.5758 -0.9911 -6.3361 17.7626 0.2255 -8.6272 -5.3270 -1.1267 -6.7422 18.9538 5.8752 -1.6158 -3.5592 4.7725 -2.4573 -2.7233 1.5624 -1.3420 -0.8450 -6.6690 -2.3098 -17.4130 1.7362 -3.0158 35.1927 1.2454 -2.3403 15.4132 -0.0000 0.0000 0.0000 -91.9959 -9.7806 28.4314 33.1249 -43.4258 -13.5078 -0.0000 0.0000 -6.2771 14.9370 29.8072 7.5538 -7.1250 0.0000 -0.0000 -18.5997 59.6697 -6.8044 -0.0000 0.0000 0.0000 86.7507 4.9020 36.3717 -22.7155 33.7762 -6.9795 0.0000 -0.0000 -27.9745 1.2329 -46.8433 -0.8994 7.1250 -0.0000 -0.0000 58.2630 -68.3057 -37.0102
0.00 0.00 0.00 -485.7170 -79.6948 491.8600 0.0000 0.0000 0.0000 -3.3445 -7.6812 -28.8259 1.2823 7.1761 20.2381 -0.0518 6.8997 -8.4707 0.6617 -5.2026 -14.4872 0.0000 0.0000 0.0000 33.7223 5.6216 2.1532 -0.5328 -4.6771 12.9900 -0.4778 -1.6969 -13.7840 -0.3898 -4.0092 11.1025 8.5151 1.2624 -5.0906 3.4845 1.1682 -3.8154 -1.1081 0.3737 -1.0029 -2.9605 1.6624 -15.7224 3.5640 1.3195 31.7161 2.0460 0.3911 13.2001 -0.0000 -0.0000 0.0000 -87.3708 -25.7554 24.4530 50.4645 -53.1811 -26.5455 -0.0000 0.0000 -22.8469 5.8530 30.2823 2.9591 -7.1250 0.0000 -0.0000 -28.2671 58.0735 -9.5380 -0.0000 -0.0000 0.0000 83.5324 7.7546 48.2737 -49.9067 52.9578 -26.0997 0.0000 -0.0000 -20.1532 2.1685 -38.8624 -1.3610 7.1250 -0.0000 -0.0000 45.3719 -62.9827 -22.0901
